<svg xmlns="http://www.w3.org/2000/svg" viewBox="0 0 640 500" role="img" aria-label="手性等离激元研究拼图">
  <rect width="640" height="500" fill="#ffffff"/>
  <g transform="translate(0 0)">
    <rect width="280" height="160" fill="#2e2e2e"/>
    <g fill="#e9e9e9" opacity=".85">
      <path d="M38 34 q20 -20 40 0 q-20 20 -40 0Z"/>
      <path d="M115 34 q20 -20 40 0 q-20 20 -40 0Z"/>
      <path d="M190 34 q20 -20 40 0 q-20 20 -40 0Z"/>
      <path d="M58 96 q26 -14 58 4 q-26 18 -58 -4Z"/>
      <path d="M150 112 q34 -22 72 2 q-34 24 -72 -2Z"/>
    </g>
    <text x="20" y="145" fill="#fff" font-size="18" font-family="Arial">SEM</text>
  </g>
  <g transform="translate(292 0)">
    <rect width="348" height="160" fill="#181b52"/>
    <circle cx="80" cy="80" r="54" fill="#ffbd22"/>
    <circle cx="80" cy="80" r="31" fill="#fa3030"/>
    <circle cx="80" cy="80" r="10" fill="#fff276"/>
    <g fill="#00c8ff" opacity=".72">
      <circle cx="184" cy="42" r="8"/><circle cx="215" cy="62" r="10"/><circle cx="246" cy="44" r="8"/>
      <circle cx="282" cy="86" r="11"/><circle cx="205" cy="112" r="9"/><circle cx="252" cy="124" r="8"/>
    </g>
    <path d="M196 140 C240 96 284 94 334 32" fill="none" stroke="#e6ffff" stroke-width="6" opacity=".65"/>
  </g>
  <g transform="translate(0 172)">
    <rect width="320" height="328" fill="#dde7f2"/>
    <polygon points="54,226 250,226 204,142 94,142" fill="#ffd34c" stroke="#b38400" stroke-width="3"/>
    <polygon points="94,142 204,142 170,92 128,92" fill="#f6fbff" stroke="#6d7f98" stroke-width="3"/>
    <g stroke="#1db4ff" stroke-width="3" fill="none">
      <path d="M76 214 C112 166 158 258 236 168"/>
      <path d="M80 192 C122 142 158 236 234 146"/>
      <path d="M82 170 C126 118 164 214 230 126"/>
    </g>
    <g fill="#e94949">
      <text x="36" y="278" font-family="Arial" font-size="22" font-weight="700">The Nanoscale</text>
      <text x="36" y="304" font-family="Arial" font-size="22" font-weight="700">Electro-optic Modulator</text>
    </g>
  </g>
  <g transform="translate(332 172)">
    <rect width="308" height="328" fill="#111827"/>
    <g fill="#ffcc32" opacity=".85">
      <circle cx="52" cy="60" r="24"/><circle cx="138" cy="42" r="10"/><circle cx="230" cy="70" r="18"/>
      <circle cx="82" cy="150" r="8"/><circle cx="142" cy="188" r="22"/><circle cx="246" cy="214" r="11"/>
    </g>
    <g stroke="#24d7ff" stroke-width="4" opacity=".72">
      <path d="M42 286 C96 230 142 316 198 244 C226 208 250 226 282 190"/>
      <path d="M42 252 C96 196 142 282 198 210 C226 174 250 192 282 156"/>
    </g>
    <text x="22" y="306" fill="#fff" font-family="Arial" font-size="18">LCP / RCP response</text>
  </g>
</svg>
